<?xml version="1.0" encoding="UTF-8" standalone="no"?>
<!-- Created with Inkscape (http://www.inkscape.org/) -->

<svg
   xmlns:dc="http://purl.org/dc/elements/1.1/"
   xmlns:cc="http://creativecommons.org/ns#"
   xmlns:rdf="http://www.w3.org/1999/02/22-rdf-syntax-ns#"
   xmlns:svg="http://www.w3.org/2000/svg"
   xmlns="http://www.w3.org/2000/svg"
   xmlns:sodipodi="http://sodipodi.sourceforge.net/DTD/sodipodi-0.dtd"
   xmlns:inkscape="http://www.inkscape.org/namespaces/inkscape"
   width="403.10001"
   height="403.10001"
   viewBox="0 0 106.65355 106.65354"
   version="1.1"
   id="svg4582"
   inkscape:version="0.92.5 (2060ec1f9f, 2020-04-08)"
   sodipodi:docname="TTS.svg">
  <defs
     id="defs4576" />
  <sodipodi:namedview
     id="base"
     pagecolor="#ffffff"
     bordercolor="#666666"
     borderopacity="1.0"
     inkscape:pageopacity="0.0"
     inkscape:pageshadow="2"
     inkscape:zoom="1.979899"
     inkscape:cx="203.23228"
     inkscape:cy="191.67644"
     inkscape:document-units="mm"
     inkscape:current-layer="g470"
     showgrid="false"
     inkscape:window-width="1920"
     inkscape:window-height="1043"
     inkscape:window-x="0"
     inkscape:window-y="0"
     inkscape:window-maximized="1"
     inkscape:pagecheckerboard="0"
     units="px"
     gridtolerance="1"
     objecttolerance="1"
     guidetolerance="1" />
  <metadata
     id="metadata4579">
    <rdf:RDF>
      <cc:Work
         rdf:about="">
        <dc:format>image/svg+xml</dc:format>
        <dc:type
           rdf:resource="http://purl.org/dc/dcmitype/StillImage" />
        <dc:title></dc:title>
      </cc:Work>
    </rdf:RDF>
  </metadata>
  <g
     inkscape:groupmode="layer"
     id="layer2"
     inkscape:label="Layer 2"
     transform="translate(5.5041593,9.7773246)"
     style="display:inline">
    <g
       id="g470"
       transform="matrix(1.9758351,0,0,1.9755557,5.3711525,9.5383244)">
      <circle
         style="display:inline;fill:#fffffc;fill-opacity:1;stroke:#0047ff;stroke-width:2.70457006;stroke-miterlimit:4.4000001;stroke-dasharray:none;stroke-opacity:1"
         id="path5156-3"
         cy="17.222673"
         cx="21.495838"
         r="25.647713" />
      <g
         id="frames"
         transform="matrix(0.08205712,0,0,0.08206872,-0.53840337,5.4437447)">
        <path
           style="fill:#0047ff"
           inkscape:connector-curvature="0"
           d="m 176.7214,10.221619 c 0.1966,0.581305 0.35789,1.174186 0.48298,1.775338 l 1.56562,7.524891 -65.76916,22.69327 C 101.03955,46.342233 94.034254,58.779973 96.618553,71.199535 L 135.143,256.33885 61.681989,281.68643 c -1.5219,0.52512 -3.069767,0.78811 -4.595458,0.81284 l -0.304829,0.002 c -6.191584,-0.0282 -11.963361,-3.97035 -14.07758,-10.22162 -0.196601,-0.5813 -0.357896,-1.17418 -0.482986,-1.77533 L 0.32163204,69.144462 C -1.2316777,61.679603 2.9714496,54.217046 10.11802,51.751199 L 157.74353,0.81461385 c 1.5219,-0.52511501 3.06976,-0.78810635 4.59546,-0.81283738 L 162.64381,0 c 6.19159,0.02818589 11.96337,3.9703581 14.07759,10.221619 z m 4.1196,19.255381 8.287,39.822 29.97589,144.05758 c 1.5533,7.46486 -2.64982,14.92742 -9.79639,17.39327 l -64.5515,22.272 -38.26123,-183.877388 c -1.55331,-7.464859 2.64982,-14.927416 9.79639,-17.393263 z"
           id="frame4" />
        <path
           style="fill:#1e5dff"
           inkscape:connector-curvature="0"
           d="m 282.89454,10.221619 c 0.1966,0.581305 0.35789,1.174186 0.48298,1.775338 l 1.70362,8.188891 -63.84513,22.02927 c -11.96129,4.127115 -18.96658,16.564855 -16.38228,28.984417 l 38.38641,184.475315 -75.38501,26.01158 c -1.5219,0.52512 -3.06977,0.78811 -4.59546,0.81284 l -0.30483,0.002 c -6.19158,-0.0282 -11.96336,-3.97035 -14.07758,-10.22162 -0.1966,-0.5813 -0.35789,-1.17418 -0.48298,-1.77533 L 106.49477,69.144462 c -1.55331,-7.464859 2.64982,-14.927416 9.79639,-17.393263 L 263.91667,0.81461385 c 1.5219,-0.52511501 3.06977,-0.78810635 4.59546,-0.81283738 L 268.81696,0 c 6.19158,0.02818589 11.96335,3.9703581 14.07758,10.221619 z m 4.2586,19.920229 8.148,39.157152 29.97588,144.05758 c 1.55332,7.46486 -2.64981,14.92742 -9.79638,17.39327 l -62.6275,21.608 -38.12319,-183.213388 c -1.55331,-7.464859 2.64981,-14.927416 9.79638,-17.393263 z"
           id="frame3" />
        <path
           style="fill:#3d73ff"
           inkscape:connector-curvature="0"
           d="m 391.12971,10.221619 c 0.1966,0.581305 0.3579,1.174186 0.48299,1.775338 l 1.56561,7.524891 -65.76916,22.69327 c -11.96129,4.127115 -18.96658,16.564855 -16.38228,28.984417 l 38.52444,185.139315 -73.46101,25.34758 c -1.5219,0.52512 -3.06976,0.78811 -4.59545,0.81284 l -0.30483,0.002 c -6.19159,-0.0282 -11.96336,-3.97035 -14.07758,-10.22162 -0.1966,-0.5813 -0.3579,-1.17418 -0.48299,-1.77533 L 214.72995,69.144462 c -1.55331,-7.464859 2.64981,-14.927416 9.79638,-17.393263 L 372.15184,0.81461385 c 1.5219,-0.52511501 3.06977,-0.78810635 4.59546,-0.81283738 L 377.05213,0 c 6.19158,0.02818589 11.96336,3.9703581 14.07758,10.221619 z m 4.11961,19.255381 8.28699,39.822 29.97589,144.05758 c 1.55331,7.46486 -2.64982,14.92742 -9.79639,17.39327 l -64.5515,22.272 -38.26122,-183.877388 c -1.55331,-7.464859 2.64981,-14.927416 9.79639,-17.393263 z"
           id="frame2" />
        <path
           style="fill:#6c95ff"
           inkscape:connector-curvature="0"
           d="m 497.30285,10.221619 c 0.1966,0.581305 0.3579,1.174186 0.48299,1.775338 l 41.8995,201.359623 c 1.55331,7.46486 -2.64982,14.92742 -9.79638,17.39327 l -147.62552,50.93658 c -1.5219,0.52512 -3.06976,0.78811 -4.59545,0.81284 l -0.30483,0.002 c -6.19159,-0.0282 -11.96336,-3.97035 -14.07758,-10.22162 -0.1966,-0.5813 -0.3579,-1.17418 -0.48299,-1.77533 L 320.90309,69.144462 c -1.55331,-7.464859 2.64981,-14.927416 9.79639,-17.393263 L 478.32499,0.81461385 c 1.52189,-0.52511501 3.06976,-0.78810635 4.59545,-0.81283738 L 483.22527,0 c 6.19158,0.02818589 11.96336,3.9703581 14.07758,10.221619 z"
           id="frame1" />
      </g>
    </g>
  </g>
</svg>
