<?xml version="1.0" encoding="UTF-8" standalone="no"?>
<!-- Generator: Adobe Illustrator 22.0.1, SVG Export Plug-In . SVG Version: 6.00 Build 0)  -->

<svg
   version="1.1"
   id="Layer_5"
   x="0px"
   y="0px"
   viewBox="0 0 403.2 403.1"
   enable-background="new 0 0 403.2 403.1"
   xml:space="preserve"
   sodipodi:docname="NS_TTS_V3.svg"
   width="403.20001"
   height="403.10001"
   inkscape:version="1.1 (c68e22c387, 2021-05-23)"
   xmlns:inkscape="http://www.inkscape.org/namespaces/inkscape"
   xmlns:sodipodi="http://sodipodi.sourceforge.net/DTD/sodipodi-0.dtd"
   xmlns="http://www.w3.org/2000/svg"
   xmlns:svg="http://www.w3.org/2000/svg"><defs
   id="defs362">
		
	
			
			
			
			
		</defs><sodipodi:namedview
   id="namedview360"
   pagecolor="#ffffff"
   bordercolor="#666666"
   borderopacity="1.0"
   inkscape:pageshadow="2"
   inkscape:pageopacity="0.0"
   inkscape:pagecheckerboard="0"
   showgrid="false"
   showguides="false"
   inkscape:zoom="2.1657157"
   inkscape:cx="307.28872"
   inkscape:cy="201.31913"
   inkscape:window-width="960"
   inkscape:window-height="1051"
   inkscape:window-x="0"
   inkscape:window-y="0"
   inkscape:window-maximized="1"
   inkscape:current-layer="g345" />
<g
   id="g345"
   transform="matrix(1.2348373,0,0,1.1389831,-47.392129,-28.018984)">
	
	
	
	<g
   id="g727"
   transform="matrix(1.577395,0,0,1.2557644,-116.3632,-6.291805)"><g
     id="g700"><g
       id="g324">
				<radialGradient
   id="SVGID_1_"
   cx="200.35831"
   cy="44.839001"
   r="257.55939"
   gradientUnits="userSpaceOnUse">
					<stop
   offset="0"
   style="stop-color:#1B75BC"
   id="stop317" />
					<stop
   offset="1"
   style="stop-color:#2B3990"
   id="stop319" />
				</radialGradient>
				<path
   fill="url(#SVGID_1_)"
   d="m 201.6,306.5 c 0,0 103.5,-117.3 103.5,-174.4 0,-57.2 -46.3,-103.5 -103.5,-103.5 -57.2,0 -103.5,46.3 -103.5,103.5 0,57.1 103.5,174.4 103.5,174.4 z m 0,-245.9"
   id="path322"
   style="fill:url(#SVGID_1_)" />
			</g><g
       id="g333">
				<radialGradient
   id="SVGID_2_"
   cx="200.36411"
   cy="30.708099"
   r="131.6891"
   gradientUnits="userSpaceOnUse">
					<stop
   offset="0"
   style="stop-color:#27AAE1"
   id="stop326" />
					<stop
   offset="1"
   style="stop-color:#1B75BC"
   id="stop328" />
				</radialGradient>
				<path
   fill="url(#SVGID_2_)"
   d="m 201.6,24.6 c -57.2,0 -103.5,46.3 -103.5,103.5 0,0.5 0,1.1 0,1.6 C 99.7,73.9 145.4,29 201.6,29 c 56.2,0 101.9,44.8 103.5,100.6 0,-0.5 0,-1.1 0,-1.6 0,-57.1 -46.3,-103.4 -103.5,-103.4 z"
   id="path331"
   style="fill:url(#SVGID_2_)" />
			</g></g><path
     fill="#ffffff"
     stroke="#ffffff"
     stroke-miterlimit="10"
     d="m 256.6,128.2 c 5.2,0 9.5,4.5 9.5,10.1 0,7.6 -4.2,13.7 -9.5,13.7 H 138.7 c -6.5,0 -11.7,-6.7 -11.7,-15 0,-8.3 6.3,-15 14.2,-15 0,-8.2 6.9,-14.8 15.3,-14.8 0,-7 5.8,-12.7 12.9,-12.7 7.9,0 14.3,5.4 14.3,12.1 0,-13.3 10.7,-24 24.3,-24 h 2.9 c 13.8,0 22.2,12.6 22.2,26.3 1.6,-7.4 19.3,-10.9 25.8,1.2 3.1,5.6 2.8,13.1 -2.3,18.1 z"
     id="path339" /><path
     fill="none"
     stroke="#ffffff"
     stroke-width="4"
     stroke-linecap="round"
     stroke-miterlimit="10"
     d="m 266.4,118.2 c 0.5,-3.6 0.6,-7.8 -0.8,-11.1 -2.3,-5.5 -7.7,-8.5 -12.2,-9.5"
     id="path341" /><path
     fill="none"
     stroke="#ffffff"
     stroke-width="4"
     stroke-linecap="round"
     stroke-miterlimit="10"
     d="m 273.7,119.1 c 0.7,-5.1 1.2,-10.3 -1,-15.6 -3.1,-7.6 -10.2,-11.9 -16.2,-13.3"
     id="path343" /></g>
</g>
<g
   id="g347">
</g>
<g
   id="g349">
</g>
<g
   id="g351">
</g>
<g
   id="g353">
</g>
<g
   id="g355">
</g>
<g
   id="g357">
</g>
</svg>
