<?xml version="1.0" standalone="no"?>
<!DOCTYPE svg PUBLIC "-//W3C//DTD SVG 20010904//EN"
 "http://www.w3.org/TR/2001/REC-SVG-20010904/DTD/svg10.dtd">
<svg version="1.0" xmlns="http://www.w3.org/2000/svg"
 width="512.000000pt" height="512.000000pt" viewBox="0 0 512.000000 512.000000"
 preserveAspectRatio="xMidYMid meet">
<metadata>
Created by potrace 1.11, written by Peter Selinger 2001-2013
</metadata>
<g transform="translate(0.000000,512.000000) scale(0.100000,-0.100000)"
fill="#000000" stroke="none">
<path d="M2435 5113 c-204 -23 -397 -79 -561 -163 -260 -132 -512 -385 -642
-645 -75 -151 -134 -324 -136 -402 0 -24 -4 -43 -9 -43 -4 0 -7 -12 -7 -27 0
-16 -2 -48 -4 -73 -12 -109 -8 -279 8 -363 65 -341 334 -854 764 -1450 51 -70
92 -130 92 -133 0 -6 84 -117 110 -145 36 -40 60 -71 60 -79 0 -8 38 -55 75
-94 11 -12 38 -48 60 -81 42 -63 45 -66 103 -131 20 -23 46 -53 57 -68 11 -14
39 -47 63 -72 23 -24 42 -50 42 -57 0 -7 12 -20 27 -29 26 -15 28 -15 55 12
15 16 28 33 28 39 0 6 24 35 53 64 29 28 64 70 77 92 13 22 31 48 39 57 9 10
27 32 41 48 36 43 54 62 83 85 14 11 26 26 27 33 0 6 9 21 19 31 10 10 37 50
60 87 22 38 54 78 71 89 16 11 30 26 30 33 0 6 8 20 18 30 9 10 24 30 32 45 8
14 65 95 125 179 419 580 684 1092 745 1438 7 36 11 119 10 185 -1 66 -2 135
-1 153 0 17 -3 32 -8 32 -4 0 -6 19 -4 41 4 31 2 40 -7 34 -9 -5 -10 -2 -6 12
24 74 -124 449 -236 598 -174 233 -353 386 -576 492 -145 69 -265 107 -429
134 -67 11 -290 19 -348 12z m355 -845 c110 -31 200 -151 225 -302 l6 -38 22
20 c34 32 91 52 150 52 168 0 278 -176 202 -325 -13 -27 -23 -49 -22 -50 87
-31 117 -73 117 -160 0 -71 -29 -137 -73 -169 -28 -21 -38 -21 -895 -24 -584
-2 -879 0 -903 8 -53 15 -89 47 -115 104 -43 93 -26 202 42 270 31 31 81 56
113 56 14 0 21 9 26 33 21 97 90 164 188 182 32 6 37 11 37 34 0 35 31 83 76
117 34 26 45 29 114 29 67 0 82 -3 119 -28 23 -15 50 -41 60 -57 18 -30 31
-30 31 -1 0 32 49 120 89 160 95 95 248 130 391 89z m645 -102 c143 -68 213
-199 196 -371 -5 -51 -9 -60 -26 -60 -19 0 -20 7 -21 96 0 84 -4 104 -28 153
-31 64 -101 126 -163 146 -46 15 -63 28 -63 46 0 21 49 17 105 -10z m-59 -101
c43 -18 102 -72 123 -114 38 -75 35 -206 -4 -206 -18 0 -20 7 -21 75 0 49 -6
86 -17 107 -22 41 -83 91 -129 105 -24 7 -38 17 -38 28 0 33 14 34 86 5z"/>
<path d="M3411 1822 l-94 -3 -41 -42 c-22 -24 -47 -55 -53 -70 -7 -15 -17 -27
-22 -27 -5 0 -12 -11 -15 -24 -3 -13 -16 -31 -30 -39 -13 -9 -36 -37 -51 -64
-15 -26 -34 -55 -41 -63 -7 -8 -21 -24 -31 -35 -10 -11 -24 -33 -30 -48 -7
-15 -17 -27 -22 -27 -8 0 -51 -41 -92 -89 -10 -10 -30 -41 -45 -67 -16 -27
-52 -72 -81 -101 -29 -28 -53 -58 -53 -67 0 -9 -18 -34 -39 -55 -21 -21 -42
-48 -46 -60 -15 -47 -70 -50 -99 -6 -9 14 -29 31 -45 40 -16 8 -33 24 -36 36
-4 11 -23 38 -43 59 -21 21 -46 49 -57 64 -11 14 -36 43 -55 65 -19 21 -44 50
-55 65 -11 14 -30 38 -43 52 -13 15 -35 45 -49 68 -15 22 -48 62 -75 88 -26
27 -48 54 -48 62 0 8 -9 18 -20 21 -11 4 -29 24 -39 45 -10 21 -38 64 -63 96
-24 33 -53 74 -64 92 l-19 33 -485 -3 c-465 -3 -486 -4 -519 -23 -33 -19 -47
-51 -323 -740 l-288 -720 4 -91 c5 -120 35 -175 119 -221 30 -17 155 -18 2207
-21 1196 -2 2194 0 2217 3 50 7 124 61 149 107 10 21 18 65 21 118 l5 85 -117
295 c-65 162 -125 318 -135 345 -57 158 -323 812 -336 827 -9 9 -39 22 -68 28
-48 10 -642 19 -855 12z"/>
</g>
</svg>
