<?xml version="1.0" encoding="UTF-8" standalone="no"?>
<!-- Created with Inkscape (http://www.inkscape.org/) -->

<svg
   xmlns:dc="http://purl.org/dc/elements/1.1/"
   xmlns:cc="http://creativecommons.org/ns#"
   xmlns:rdf="http://www.w3.org/1999/02/22-rdf-syntax-ns#"
   xmlns:svg="http://www.w3.org/2000/svg"
   xmlns="http://www.w3.org/2000/svg"
   xmlns:sodipodi="http://sodipodi.sourceforge.net/DTD/sodipodi-0.dtd"
   xmlns:inkscape="http://www.inkscape.org/namespaces/inkscape"
   width="54mm"
   height="54mm"
   viewBox="0 0 54 53.999999"
   version="1.1"
   id="svg4582"
   inkscape:version="0.92.5 (2060ec1f9f, 2020-04-08)"
   sodipodi:docname="logo-in-circle.svg">
  <defs
     id="defs4576" />
  <sodipodi:namedview
     id="base"
     pagecolor="#ffffff"
     bordercolor="#666666"
     borderopacity="1.0"
     inkscape:pageopacity="0.0"
     inkscape:pageshadow="2"
     inkscape:zoom="1.979899"
     inkscape:cx="45.432858"
     inkscape:cy="72.814609"
     inkscape:document-units="mm"
     inkscape:current-layer="layer1"
     showgrid="false"
     inkscape:window-width="1848"
     inkscape:window-height="1016"
     inkscape:window-x="72"
     inkscape:window-y="27"
     inkscape:window-maximized="1" />
  <metadata
     id="metadata4579">
    <rdf:RDF>
      <cc:Work
         rdf:about="">
        <dc:format>image/svg+xml</dc:format>
        <dc:type
           rdf:resource="http://purl.org/dc/dcmitype/StillImage" />
        <dc:title></dc:title>
      </cc:Work>
    </rdf:RDF>
  </metadata>
  <g
     inkscape:label="Layer 1"
     inkscape:groupmode="layer"
     id="layer1"
     transform="translate(-95.121911,-133.39298)">
    <circle
       style="fill:#fffffc;fill-opacity:1;stroke:#000000;stroke-width:2.70457339;stroke-miterlimit:4.4000001;stroke-dasharray:none;stroke-opacity:1"
       id="path5156"
       cy="160.39297"
       cx="122.12191"
       r="25.647713" />
  </g>
  <g
     inkscape:groupmode="layer"
     id="layer2"
     inkscape:label="Layer 2"
     transform="translate(5.5041593,9.7773246)">
    <g
       transform="matrix(0.35277777,0,0,-0.35277777,-7e-5,30.98093)"
       id="g4563">
      <path
         d="m 81.2926,81.05 c 6.9004,-0.5297 13.4043,-3.5254 18.314,-8.4352 4.9094,-4.9089 7.9054,-11.4132 8.4354,-18.3144 0.065,-0.8395 0.43,-1.584 0.982,-2.1359 0.675,-0.6754 1.63,-1.0625 2.657,-0.984 1.867,0.1433 3.264,1.7726 3.12,3.6394 -0.653,8.5137 -4.348,16.536 -10.401,22.5891 -6.0527,6.0527 -14.0754,9.7469 -22.5883,10.4008 -1.8668,0.1437 -3.4961,-1.2535 -3.6394,-3.12 -0.143,-1.866 1.2535,-3.4957 3.1203,-3.6398"
         style="fill:#231f20;fill-opacity:1;fill-rule:nonzero;stroke:none;stroke-width:0.1"
         id="path36"
         inkscape:connector-curvature="0" />
      <path
         d="m 65.0711,5.90703 c -1.2805,-1.28047 -3.3637,-1.28047 -4.6438,0 -1.2796,1.28008 -1.2796,3.36211 0,4.64257 1.2801,1.2801 3.3633,1.2801 4.6438,0 1.2797,-1.28046 1.2797,-3.36249 0,-4.64257 z M 65.277,42.9285 c 1.2796,1.2801 3.3628,1.2801 4.6429,0 1.2805,-1.2805 1.2805,-3.3633 0,-4.6426 -1.2801,-1.2804 -3.3633,-1.2804 -4.6429,0 -1.2801,1.2793 -1.2801,3.3621 0,4.6426 z m 35.769,9.7637 c -1.0894,10.8812 -9.953,19.9207 -20.9944,21.3301 -5.3071,8.25 -14.4778,13.3043 -24.3547,13.3043 -7.7321,0 -15.0008,-3.011 -20.4684,-8.4786 -5.4672,-5.4675 -8.4777,-12.7359 -8.4777,-20.4675 0,-0.3328 -0.0223,-0.8782 -0.0449,-1.4977 -0.0028,-0.068 -0.0051,-0.1359 -0.0082,-0.2035 -7.0907,0.2152 -14.0235,-2.484 -19.1184,-7.5797 -10.10547,-10.1047 -10.10547,-26.5473 0,-36.6527 10.1051,-10.10549 26.5473,-10.10549 36.6527,0 0.1618,0.1621 0.3032,0.3359 0.4254,0.5195 0.1836,0.1223 0.3578,0.2637 0.5199,0.4258 l 19.5196,19.5195 c 2.9316,-1.1004 6.3676,-0.4804 8.7226,1.8742 3.2094,3.2098 3.2102,8.4325 0,11.6418 -3.2097,3.2102 -8.4328,3.2102 -11.6422,0 -2.3546,-2.3547 -2.975,-5.7902 -1.8746,-8.723 L 40.3836,18.1852 c -0.1617,-0.161 -0.3035,-0.336 -0.4254,-0.5196 -0.1836,-0.1218 -0.3578,-0.2625 -0.5195,-0.4246 -7.4625,-7.46209 -19.6039,-7.46209 -27.066,-0.0012 -7.46215,7.4629 -7.46215,19.6047 3e-4,27.0665 4.4684,4.4683 10.85,6.441 17.0723,5.2773 1.0649,-0.1992 2.1621,0.1203 2.9504,0.8644 0.7879,0.7442 1.1731,1.8176 1.0356,2.893 -0.0555,0.4961 0.0152,2.3824 0.0488,3.2887 0.0269,0.7113 0.05,1.3258 0.05,1.7504 0,5.9211 2.3054,11.4875 6.4926,15.6742 4.1863,4.1867 9.7535,6.493 15.6742,6.493 8.0336,0 15.457,-4.368 19.3754,-11.3981 0.5695,-1.0238 1.6269,-1.6793 2.7965,-1.7359 8.95,-0.4332 16.5109,-8.2078 16.5117,-16.9801 -4e-4,-1.4434 0.9125,-2.7121 2.2445,-3.1883 7.191,-2.8597 11.831,-9.6953 11.832,-17.4433 0,-4.9532 -1.936,-9.5461 -5.452,-12.9348 C 99.493,13.482 94.7652,11.618 89.6922,11.618 H 70.2406 c -0.3968,0.8808 -0.948,1.709 -1.6707,2.4316 -3.2094,3.2098 -8.432,3.2098 -11.6418,0 -3.2097,-3.2101 -3.2097,-8.4328 0,-11.64257 3.2098,-3.208983 8.4324,-3.208983 11.6418,0 0.7227,0.72266 1.2739,1.55078 1.6707,2.43164 h 19.4516 c 6.8363,0 13.2358,2.53789 18.0178,7.14723 4.853,4.6778 7.526,11.0039 7.526,17.8157 0,9.8406 -5.501,18.6019 -14.19,22.8906"
         style="fill:#231f20;fill-opacity:1;fill-rule:nonzero;stroke:none;stroke-width:0.1"
         id="path38"
         inkscape:connector-curvature="0" />
    </g>
  </g>
</svg>
