<svg viewBox="0 0 845 900" xmlns="http://www.w3.org/2000/svg"><defs><linearGradient id="a" x1="50%" x2="50%" y2="100%"><stop stop-color="#3C8EFF" offset="0"/><stop stop-color="#002FE1" offset="1"/></linearGradient><linearGradient id="b" x1="50%" x2="50%" y1="100%" y2="38.054%"><stop stop-color="#87CCFF" offset="0"/><stop stop-color="#DDF0FF" offset="1"/></linearGradient></defs><g fill="none" fill-rule="evenodd"><path transform="rotate(45 422.59 477.6)" d="M136.17 261.53c4.2031-34.873 35.911-66.367 70.911-70.186l61.158-6.24c80.944-5.6145 212.29-7.1842 293.21-.68729l79.001 7.4623c34.946 3.5946 66.443 34.853 70.199 69.871l6.5292 65.141c5.5205 80.908 6.9781 212.24.37332 293.13l-7.2093 75.064c-3.655 34.933-35.031 65.981-70.049 69.223l-78.844 6.8148c-80.993 4.7908-212.42 5.7914-293.3-.63677l-61.07-5.7028c-34.96-3.56-66.784-34.726-70.92-69.665l-7.7767-70.332c-6.0962-80.867-7.5892-212.11.009563-292.94l7.776-70.317z" fill="url(#a)"/><path d="M512.93 785.27c3.8273-3.8273 10.033-3.8273 13.86 0l64.939 64.939c3.8273 3.8273 3.8273 10.033 0 13.86-3.8273 3.8273-10.033 3.8273-13.86 0L512.93 799.13c-3.8273-3.8273-3.8273-10.033 0-13.86zm-29.401 24.501c3.8273-3.8273 10.033-3.8273 13.86 0l30.284 30.284c3.8273 3.8273 3.8273 10.033 0 13.86-3.8273 3.8273-10.033 3.8273-13.86 0l-30.284-30.284c-3.8273-3.8273-3.8273-10.033 0-13.86zm-353.54-688.9c8.0993 0 14.665 6.6021 14.665 14.701v112.71c0 10.823 1.7609 28.168 3.9506 38.825l3.7442 18.223c3.8129 18.558 6.9039 48.976 6.9039 67.873v39.201c0 10.842 8.7906 19.631 19.593 19.631h46.605v78.443l-22.096-.039701h-41.639c-35.189 0-63.715-28.513-63.715-63.741v-73.471c0-18.94 3.5953-49.19 8.048-67.637l4.5065-18.67c2.5383-10.516 4.5961-27.796 4.5961-38.638v-112.71c0-8.1189 6.5477-14.701 14.665-14.701h.17287z" fill="url(#b)" fill-rule="nonzero"/><path transform="rotate(45 422.59 477.6)" d="M136.17 261.53c4.2031-34.873 35.911-66.367 70.911-70.186l61.158-6.24c80.944-5.6145 212.29-7.1842 293.21-.68729l79.001 7.4623c34.946 3.5946 66.443 34.853 70.199 69.871l6.5292 65.141c5.5205 80.908 6.9781 212.24.37332 293.13l-7.2093 75.064c-3.655 34.933-35.031 65.981-70.049 69.223l-78.844 6.8148c-80.993 4.7908-212.42 5.7914-293.3-.63677l-61.07-5.7028c-34.96-3.56-66.784-34.726-70.92-69.665l-7.7767-70.332c-6.0962-80.867-7.5892-212.11.009563-292.94l7.776-70.317z" fill="url(#a)"/><path d="M586.65 542.46l.18064.16618 88.111 85.088-6.8079 7.0498-88.111-85.088c-1.8869-1.8221-2.0068-4.8057-.29812-6.76l.16554-.18013.17534-.17291c1.8447-1.7319 4.6868-1.7654 6.5845-.10298zm19.601-19.601l.18064.16618 88.111 85.088-6.8079 7.0498-88.111-85.088c-1.8869-1.8221-2.0068-4.8057-.29812-6.76l.16554-.18013.17534-.17291c1.8447-1.7319 4.6868-1.7654 6.5845-.10298zm104.27-68.776c16.238 0 29.401 13.163 29.401 29.401s-13.163 29.401-29.401 29.401-29.401-13.163-29.401-29.401 13.163-29.401 29.401-29.401z" fill="url(#b)" fill-rule="nonzero"/><path d="M132.3 44.918c28.416 0 51.452 23.036 51.452 51.452 0 4.0594-3.2908 7.3503-7.3503 7.3503-4.0594 0-7.3503-3.2908-7.3503-7.3503 0-20.297-16.454-36.751-36.751-36.751s-36.751 16.454-36.751 36.751c0 4.0594-3.2908 7.3503-7.3503 7.3503-4.0594 0-7.3503-3.2908-7.3503-7.3503 0-28.416 23.036-51.452 51.452-51.452zm0-44.102c52.773 0 95.554 42.781 95.554 95.554 0 4.0594-3.2908 7.3503-7.3503 7.3503s-7.3503-3.2908-7.3503-7.3503c0-44.654-36.199-80.853-80.853-80.853-44.654 0-80.853 36.199-80.853 80.853 0 4.0594-3.2908 7.3503-7.3503 7.3503s-7.3503-3.2908-7.3503-7.3503c0-52.773 42.781-95.554 95.554-95.554z" fill="url(#a)"/></g></svg>